<?xml version="1.0" encoding="UTF-8" standalone="no"?>
<svg
   xmlns:dc="http://purl.org/dc/elements/1.1/"
   xmlns:cc="http://creativecommons.org/ns#"
   xmlns:rdf="http://www.w3.org/1999/02/22-rdf-syntax-ns#"
   xmlns:svg="http://www.w3.org/2000/svg"
   xmlns="http://www.w3.org/2000/svg"
   xmlns:sodipodi="http://sodipodi.sourceforge.net/DTD/sodipodi-0.dtd"
   xmlns:inkscape="http://www.inkscape.org/namespaces/inkscape"
   width="700pt"
   height="700pt"
   version="1.1"
   viewBox="0 0 700 700"
   id="svg129"
   sodipodi:docname="noun-engineering-3134315.svg"
   inkscape:version="0.92.4 (5da689c313, 2019-01-14)">
  <metadata
     id="metadata133">
    <rdf:RDF>
      <cc:Work
         rdf:about="">
        <dc:format>image/svg+xml</dc:format>
        <dc:type
           rdf:resource="http://purl.org/dc/dcmitype/StillImage" />
      </cc:Work>
    </rdf:RDF>
  </metadata>
  <sodipodi:namedview
     pagecolor="#ffffff"
     bordercolor="#666666"
     borderopacity="1"
     objecttolerance="10"
     gridtolerance="10"
     guidetolerance="10"
     inkscape:pageopacity="0"
     inkscape:pageshadow="2"
     inkscape:window-width="2400"
     inkscape:window-height="1321"
     id="namedview131"
     showgrid="false"
     inkscape:zoom="0.715188"
     inkscape:cx="470.21279"
     inkscape:cy="338.7418"
     inkscape:window-x="-9"
     inkscape:window-y="-9"
     inkscape:window-maximized="1"
     inkscape:current-layer="g127" />
  <defs
     id="defs59">
    <symbol
       id="s"
       overflow="visible">
      <path
         d="m27.578-1.6562c-1.418 0.74219-2.8984 1.2969-4.4375 1.6719-1.543 0.375-3.1523 0.5625-4.8281 0.5625-5 0-8.9648-1.3945-11.891-4.1875-2.918-2.7891-4.375-6.582-4.375-11.375 0-4.7891 1.457-8.582 4.375-11.375 2.9258-2.8008 6.8906-4.2031 11.891-4.2031 1.6758 0 3.2852 0.1875 4.8281 0.5625 1.5391 0.375 3.0195 0.93359 4.4375 1.6719v6.2188c-1.4297-0.97656-2.8398-1.6953-4.2344-2.1562-1.3984-0.45703-2.8672-0.6875-4.4062-0.6875-2.7617 0-4.9336 0.88672-6.5156 2.6562-1.5859 1.7734-2.375 4.2109-2.375 7.3125 0 3.1055 0.78906 5.543 2.375 7.3125 1.582 1.7617 3.7539 2.6406 6.5156 2.6406 1.5391 0 3.0078-0.22266 4.4062-0.67188 1.3945-0.45703 2.8047-1.1758 4.2344-2.1562z"
         id="path2" />
    </symbol>
    <symbol
       id="c"
       overflow="visible">
      <path
         d="m20.188-16.391c-0.63672-0.28906-1.2656-0.50391-1.8906-0.64062-0.61719-0.14453-1.2422-0.21875-1.875-0.21875-1.8438 0-3.2656 0.59375-4.2656 1.7812s-1.5 2.8867-1.5 5.0938v10.375h-7.2031v-22.516h7.2031v3.7031c0.92578-1.4766 1.9883-2.5547 3.1875-3.2344 1.1953-0.67578 2.6328-1.0156 4.3125-1.0156 0.23828 0 0.5 0.011719 0.78125 0.03125 0.28125 0.023438 0.6875 0.070312 1.2188 0.14062z"
         id="path5" />
    </symbol>
    <symbol
       id="b"
       overflow="visible">
      <path
         d="m25.938-11.312v2.0469h-16.828c0.17578 1.6875 0.78516 2.9531 1.8281 3.7969 1.0391 0.84375 2.5 1.2656 4.375 1.2656 1.5195 0 3.0703-0.22266 4.6562-0.67188 1.5938-0.44531 3.2266-1.1289 4.9062-2.0469v5.5625c-1.7109 0.63672-3.418 1.1172-5.125 1.4375-1.6992 0.33203-3.3984 0.5-5.0938 0.5-4.0742 0-7.2422-1.0312-9.5-3.0938-2.2617-2.0703-3.3906-4.9766-3.3906-8.7188 0-3.6758 1.1094-6.5664 3.3281-8.6719 2.2188-2.1016 5.2695-3.1562 9.1562-3.1562 3.5391 0 6.375 1.0703 8.5 3.2031 2.125 2.125 3.1875 4.9766 3.1875 8.5469zm-7.4062-2.3906c0-1.375-0.40234-2.4766-1.2031-3.3125-0.79297-0.84375-1.8281-1.2656-3.1094-1.2656-1.3984 0-2.5312 0.39844-3.4062 1.1875-0.86719 0.78125-1.4062 1.9141-1.625 3.3906z"
         id="path8" />
    </symbol>
    <symbol
       id="j"
       overflow="visible">
      <path
         d="m13.547-10.125c-1.5 0-2.6328 0.25781-3.3906 0.76562-0.75 0.5-1.125 1.25-1.125 2.25 0 0.90625 0.30078 1.6211 0.90625 2.1406 0.61328 0.51172 1.4609 0.76562 2.5469 0.76562 1.3516 0 2.4883-0.48438 3.4062-1.4531 0.92578-0.96875 1.3906-2.1875 1.3906-3.6562v-0.8125zm11-2.7188v12.844h-7.2656v-3.3438c-0.96094 1.375-2.043 2.375-3.25 3-1.2109 0.61328-2.6797 0.92188-4.4062 0.92188-2.3359 0-4.2305-0.67578-5.6875-2.0312-1.4492-1.3633-2.1719-3.1289-2.1719-5.2969 0-2.6445 0.90625-4.582 2.7188-5.8125 1.8203-1.2383 4.6758-1.8594 8.5625-1.8594h4.2344v-0.5625c0-1.1328-0.44922-1.9688-1.3438-2.5-0.89844-0.53125-2.2969-0.79688-4.2031-0.79688-1.543 0-2.9766 0.15625-4.2969 0.46875-1.3242 0.3125-2.5586 0.77734-3.7031 1.3906v-5.4844c1.5391-0.375 3.0859-0.66016 4.6406-0.85938 1.5625-0.19531 3.1172-0.29688 4.6719-0.29688 4.0625 0 6.9922 0.80469 8.7969 2.4062 1.8008 1.6055 2.7031 4.2109 2.7031 7.8125z"
         id="path11" />
    </symbol>
    <symbol
       id="a"
       overflow="visible">
      <path
         d="m11.312-28.906v6.3906h7.4219v5.1406h-7.4219v9.5625c0 1.043 0.20703 1.75 0.625 2.125 0.41406 0.36719 1.2422 0.54688 2.4844 0.54688h3.6875v5.1406h-6.1719c-2.8438 0-4.8594-0.59375-6.0469-1.7812-1.1797-1.1875-1.7656-3.1953-1.7656-6.0312v-9.5625h-3.5781v-5.1406h3.5781v-6.3906z"
         id="path14" />
    </symbol>
    <symbol
       id="i"
       overflow="visible">
      <path
         d="m18.781-19.219v-12.062h7.2344v31.281h-7.2344v-3.25c-1 1.3242-2.1016 2.293-3.2969 2.9062-1.1875 0.61328-2.5625 0.92188-4.125 0.92188-2.7734 0-5.0547-1.0977-6.8438-3.2969-1.7812-2.207-2.6719-5.0469-2.6719-8.5156s0.89062-6.3047 2.6719-8.5156c1.7891-2.207 4.0703-3.3125 6.8438-3.3125 1.5508 0 2.9258 0.3125 4.125 0.9375 1.1953 0.625 2.2969 1.5938 3.2969 2.9062zm-4.75 14.578c1.5391 0 2.7188-0.5625 3.5312-1.6875s1.2188-2.7578 1.2188-4.9062c0-2.1445-0.40625-3.7812-1.2188-4.9062s-1.9922-1.6875-3.5312-1.6875c-1.5312 0-2.7031 0.5625-3.5156 1.6875-0.80469 1.125-1.2031 2.7617-1.2031 4.9062 0 2.1484 0.39844 3.7812 1.2031 4.9062 0.8125 1.125 1.9844 1.6875 3.5156 1.6875z"
         id="path17" />
    </symbol>
    <symbol
       id="h"
       overflow="visible">
      <path
         d="m15.438-4.6406c1.5391 0 2.7188-0.5625 3.5312-1.6875s1.2188-2.7578 1.2188-4.9062c0-2.1445-0.40625-3.7812-1.2188-4.9062s-1.9922-1.6875-3.5312-1.6875c-1.543 0-2.7266 0.57031-3.5469 1.7031-0.82422 1.125-1.2344 2.7578-1.2344 4.8906 0 2.125 0.41016 3.7578 1.2344 4.8906 0.82031 1.1367 2.0039 1.7031 3.5469 1.7031zm-4.7812-14.578c0.98828-1.3125 2.0859-2.2812 3.2969-2.9062 1.207-0.625 2.5938-0.9375 4.1562-0.9375 2.7812 0 5.0625 1.1055 6.8438 3.3125 1.7812 2.2109 2.6719 5.0469 2.6719 8.5156s-0.89062 6.3086-2.6719 8.5156c-1.7812 2.1992-4.0625 3.2969-6.8438 3.2969-1.5625 0-2.9492-0.30859-4.1562-0.92188-1.2109-0.625-2.3086-1.5938-3.2969-2.9062v3.25h-7.2031v-31.281h7.2031z"
         id="path20" />
    </symbol>
    <symbol
       id="g"
       overflow="visible">
      <path
         d="m0.5-22.516h7.2031l6.0469 15.281 5.1406-15.281h7.2031l-9.4688 24.641c-0.94922 2.5078-2.0586 4.2656-3.3281 5.2656-1.2617 1-2.9336 1.5-5.0156 1.5h-4.1562v-4.7344h2.25c1.2188 0 2.1016-0.19531 2.6562-0.57812 0.5625-0.38672 0.99219-1.0859 1.2969-2.0938l0.20312-0.625z"
         id="path23" />
    </symbol>
    <symbol
       id="f"
       overflow="visible">
      <path
         d="m0.20312-30.016h7.7812l7.9531 22.156 7.9531-22.156h7.7656l-11.109 30.016h-9.2344z"
         id="path26" />
    </symbol>
    <symbol
       id="r"
       overflow="visible">
      <path
         d="m21.656-21.812v5.875c-0.98047-0.67578-1.9648-1.1719-2.9531-1.4844-0.98047-0.32031-2-0.48438-3.0625-0.48438-2.0117 0-3.5781 0.58984-4.7031 1.7656-1.1172 1.168-1.6719 2.8047-1.6719 4.9062 0 2.1055 0.55469 3.7461 1.6719 4.9219 1.125 1.168 2.6914 1.75 4.7031 1.75 1.125 0 2.1914-0.16406 3.2031-0.5 1.0078-0.33203 1.9453-0.82812 2.8125-1.4844v5.8906c-1.125 0.40625-2.2734 0.71094-3.4375 0.92188-1.1562 0.20703-2.3203 0.3125-3.4844 0.3125-4.0625 0-7.2422-1.0391-9.5312-3.125-2.293-2.082-3.4375-4.9766-3.4375-8.6875 0-3.7188 1.1445-6.6172 3.4375-8.7031 2.2891-2.082 5.4688-3.125 9.5312-3.125 1.1758 0 2.3359 0.10547 3.4844 0.3125 1.1445 0.21094 2.2891 0.52344 3.4375 0.9375z"
         id="path29" />
    </symbol>
    <symbol
       id="e"
       overflow="visible">
      <path
         d="m14.172-17.906c-1.5938 0-2.8125 0.57422-3.6562 1.7188-0.83594 1.1484-1.25 2.7969-1.25 4.9531s0.41406 3.8086 1.25 4.9531c0.84375 1.1484 2.0625 1.7188 3.6562 1.7188 1.5703 0 2.7695-0.57031 3.5938-1.7188 0.83203-1.1445 1.25-2.7969 1.25-4.9531s-0.41797-3.8047-1.25-4.9531c-0.82422-1.1445-2.0234-1.7188-3.5938-1.7188zm0-5.1562c3.875 0 6.8984 1.0469 9.0781 3.1406 2.1758 2.0938 3.2656 4.9922 3.2656 8.6875 0 3.6992-1.0898 6.5938-3.2656 8.6875-2.1797 2.0859-5.2031 3.125-9.0781 3.125-3.8867 0-6.9297-1.0391-9.125-3.125-2.1875-2.0938-3.2812-4.9883-3.2812-8.6875 0-3.6953 1.0938-6.5938 3.2812-8.6875 2.1953-2.0938 5.2383-3.1406 9.125-3.1406z"
         id="path32" />
    </symbol>
    <symbol
       id="q"
       overflow="visible">
      <path
         d="m21.047-21.812v5.4688c-1.543-0.64453-3.0312-1.1289-4.4688-1.4531-1.4297-0.32031-2.7773-0.48438-4.0469-0.48438-1.375 0-2.3984 0.17188-3.0625 0.51562-0.65625 0.34375-0.98438 0.87109-0.98438 1.5781 0 0.58594 0.25 1.0312 0.75 1.3438 0.5 0.30469 1.3984 0.52734 2.7031 0.67188l1.2656 0.1875c3.6875 0.46875 6.1641 1.2422 7.4375 2.3125 1.2812 1.0625 1.9219 2.7422 1.9219 5.0312 0 2.4062-0.88672 4.2148-2.6562 5.4219-1.7734 1.1992-4.4141 1.7969-7.9219 1.7969-1.4922 0-3.0312-0.12109-4.625-0.35938-1.5859-0.22656-3.2148-0.57812-4.8906-1.0469v-5.4688c1.4375 0.69922 2.9062 1.2266 4.4062 1.5781 1.5078 0.34375 3.0469 0.51562 4.6094 0.51562 1.4062 0 2.4609-0.19141 3.1719-0.57812 0.70703-0.39453 1.0625-0.97266 1.0625-1.7344 0-0.64453-0.24609-1.125-0.73438-1.4375-0.49219-0.3125-1.4648-0.55469-2.9219-0.73438l-1.2656-0.15625c-3.2109-0.40625-5.4609-1.1484-6.75-2.2344-1.2812-1.082-1.9219-2.7266-1.9219-4.9375 0-2.3828 0.81641-4.1562 2.4531-5.3125 1.6328-1.1562 4.1445-1.7344 7.5312-1.7344 1.3203 0 2.7109 0.10547 4.1719 0.3125 1.457 0.19922 3.0469 0.51172 4.7656 0.9375z"
         id="path35" />
    </symbol>
    <symbol
       id="d"
       overflow="visible">
      <path
         d="m3.7812-30.016h12.844c3.8203 0 6.7539 0.85156 8.7969 2.5469 2.0391 1.6992 3.0625 4.1172 3.0625 7.25 0 3.1484-1.0234 5.5703-3.0625 7.2656-2.043 1.6992-4.9766 2.5469-8.7969 2.5469h-5.1094v10.406h-7.7344zm7.7344 5.6094v8.3906h4.2812c1.5 0 2.6562-0.36328 3.4688-1.0938 0.82031-0.73828 1.2344-1.7734 1.2344-3.1094 0-1.3438-0.41406-2.375-1.2344-3.0938-0.8125-0.72656-1.9688-1.0938-3.4688-1.0938z"
         id="path38" />
    </symbol>
    <symbol
       id="p"
       overflow="visible">
      <path
         d="m3.4531-22.516h7.2031v22.516h-7.2031zm0-8.7656h7.2031v5.875h-7.2031z"
         id="path41" />
    </symbol>
    <symbol
       id="o"
       overflow="visible">
      <path
         d="m26.094-13.703v13.703h-7.2344v-10.5c0-1.9375-0.046875-3.2734-0.14062-4.0156-0.085938-0.73828-0.23047-1.2812-0.4375-1.625-0.28125-0.46875-0.66797-0.83203-1.1562-1.0938-0.48047-0.25781-1.0273-0.39062-1.6406-0.39062-1.5 0-2.6836 0.57812-3.5469 1.7344-0.85547 1.1562-1.2812 2.7617-1.2812 4.8125v11.078h-7.2031v-22.516h7.2031v3.2969c1.082-1.3125 2.2344-2.2812 3.4531-2.9062s2.5664-0.9375 4.0469-0.9375c2.5938 0 4.5625 0.79688 5.9062 2.3906 1.3516 1.5938 2.0312 3.918 2.0312 6.9688z"
         id="path44" />
    </symbol>
    <symbol
       id="n"
       overflow="visible">
      <path
         d="m18.281-31.281v4.7188h-3.9844c-1.0234 0-1.7344 0.1875-2.1406 0.5625-0.39844 0.36719-0.59375 1.0078-0.59375 1.9219v1.5625h6.1562v5.1406h-6.1562v17.375h-7.2031v-17.375h-3.5781v-5.1406h3.5781v-1.5625c0-2.457 0.67969-4.2695 2.0469-5.4375 1.375-1.1758 3.4922-1.7656 6.3594-1.7656z"
         id="path47" />
    </symbol>
    <symbol
       id="m"
       overflow="visible">
      <path
         d="m26.094-13.703v13.703h-7.2344v-10.453c0-1.9688-0.046875-3.3203-0.14062-4.0625-0.085938-0.73828-0.23047-1.2812-0.4375-1.625-0.28125-0.46875-0.66797-0.83203-1.1562-1.0938-0.48047-0.25781-1.0273-0.39062-1.6406-0.39062-1.5 0-2.6836 0.57812-3.5469 1.7344-0.85547 1.1562-1.2812 2.7617-1.2812 4.8125v11.078h-7.2031v-31.281h7.2031v12.062c1.082-1.3125 2.2344-2.2812 3.4531-2.9062s2.5664-0.9375 4.0469-0.9375c2.5938 0 4.5625 0.79688 5.9062 2.3906 1.3516 1.5938 2.0312 3.918 2.0312 6.9688z"
         id="path50" />
    </symbol>
    <symbol
       id="l"
       overflow="visible">
      <path
         d="m3.7812-30.016h8.6406l10.922 20.594v-20.594h7.3281v30.016h-8.6406l-10.906-20.594v20.594h-7.3438z"
         id="path53" />
    </symbol>
    <symbol
       id="k"
       overflow="visible">
      <path
         d="m3.4531-22.516h7.2031v22.109c0 3.0195-0.72656 5.3203-2.1719 6.9062-1.4492 1.5938-3.5469 2.3906-6.2969 2.3906h-3.5469v-4.7344h1.2344c1.375 0 2.3125-0.30859 2.8125-0.92188 0.50781-0.61719 0.76562-1.8281 0.76562-3.6406zm0-8.7656h7.2031v5.875h-7.2031z"
         id="path56" />
    </symbol>
  </defs>
  <g
     id="g127">
    <path
       d="M 419.20659,2.0171166 V 23.047002 c 0,3.317906 -2.21813,5.533247 -5.54023,5.533247 -3.3221,0 -5.54024,-2.215341 -5.54024,-5.533247 V 2.0171166 H 385.96489 V 23.047002 c 0,3.317906 -2.21815,5.533247 -5.54025,5.533247 -3.3221,0 -5.54024,-2.215341 -5.54024,-5.533247 L 374.8794,2.0171166 H 352.71792 V 23.047002 c 0,3.317906 -2.21816,5.533247 -5.54025,5.533247 -3.3221,0 -5.54025,-2.215341 -5.54025,-5.533247 l -0.005,-21.0298854 H 319.47094 V 23.047002 c 0,3.317906 -2.21815,5.533247 -5.54025,5.533247 -3.32209,0 -5.54023,-2.215341 -5.54023,-5.533247 V 2.0171166 H 286.22923 V 23.047002 c 0,3.317906 -2.21815,5.533247 -5.54025,5.533247 -3.32209,0 -5.54023,-2.215341 -5.54023,-5.533247 l -0.005,-21.0298854 h -25.4879 V 23.047002 c 0,3.317906 -2.21815,5.533247 -5.54024,5.533247 -3.32211,0 -5.54024,-2.215341 -5.54024,-5.533247 V 2.0171166 H 216.41413 V 23.047002 c 0,3.317906 -2.21813,5.533247 -5.54023,5.533247 -3.3221,0 -5.54025,-2.215341 -5.54025,-5.533247 l -0.005,-21.0298854 H 183.16716 V 23.047002 c 0,3.317906 -2.21813,5.533247 -5.54023,5.533247 -3.32211,0 -5.54025,-2.215341 -5.54025,-5.533247 l -0.005,-21.0298854 H 149.92019 V 23.047002 c 0,3.317906 -2.21813,5.533247 -5.54023,5.533247 -3.3221,0 -5.54025,-2.215341 -5.54025,-5.533247 V 2.0171166 H 116.67847 V 23.047002 c 0,3.317906 -2.21813,5.533247 -5.54023,5.533247 -3.3221,0 -5.54024,-2.215341 -5.54024,-5.533247 L 105.593,2.0171166 H 83.431508 V 23.047002 c 0,3.317906 -2.218147,5.533247 -5.540238,5.533247 -5.545495,0 -7.763632,-2.215341 -7.763632,-5.533247 V 2.0171166 H 47.966403 V 23.047002 c 0,3.317906 -2.218149,5.533247 -5.54024,5.533247 -3.327346,0 -5.540249,-2.215341 -5.540249,-5.533247 V 2.0171166 H 5.8569638 V 49.61121 H 26.913429 c 3.322101,0 5.540248,2.215342 5.540248,5.533247 -1.109105,3.317904 -3.327357,5.533247 -6.649312,5.533247 H 5.8566942 V 83.918359 H 26.913158 c 3.322102,0 5.540249,2.215347 5.540249,5.533245 0,3.317907 -2.218147,5.533254 -5.540249,5.533254 H 5.8566942 V 117.11811 H 26.913158 c 3.322102,0 5.540249,2.21535 5.540249,5.53325 0,3.3179 -2.218147,5.53325 -5.540249,5.53325 l -21.0564638,0.005 v 22.13326 H 26.913158 c 3.322102,0 5.540249,2.21534 5.540249,5.53324 0,3.31792 -2.218147,5.53325 -5.540249,5.53325 l -21.0564638,0.005 v 22.13326 H 26.913158 c 3.322102,0 5.540249,2.21534 5.540249,5.53324 0,3.3179 -2.218147,5.53326 -5.540249,5.53326 l -21.0564638,0.005 v 23.24064 H 26.913158 c 3.322102,0 5.540249,2.21535 5.540249,5.53325 0,3.3179 -2.218147,5.53325 -5.540249,5.53325 H 5.8566942 v 22.13325 H 26.913158 c 3.322102,0 5.540249,2.21535 5.540249,5.53326 0,3.31789 -2.218147,5.53324 -5.540249,5.53324 l -21.0564638,0.005 v 22.13326 H 26.913158 c 3.322102,0 5.540249,2.21534 5.540249,5.53326 0,3.3179 -2.218147,5.53323 -5.540249,5.53323 H 5.8566942 v 22.13326 H 26.913158 c 3.322102,0 5.540249,2.21534 5.540249,5.53325 0,3.31791 -2.218147,5.53324 -5.540249,5.53324 l -21.0564638,0.005 v 22.13327 H 26.913158 c 3.322102,0 5.540249,2.21532 5.540249,5.53323 0,3.31791 -2.218147,5.53325 -5.540249,5.53325 l -21.0564638,0.005 v 22.13325 H 26.913158 c 3.322102,0 5.540249,2.21535 5.540249,5.53324 0,3.31791 -2.218147,5.53326 -5.540249,5.53326 l -21.0564638,0.005 v 22.13325 H 26.913158 c 3.322102,0 5.540249,2.21535 5.540249,5.53326 0,3.31789 -2.218147,5.53324 -5.540249,5.53324 H 5.8566942 v 47.58872 L 54.614373,427.01909 C 85.643318,363.93348 137.72875,310.81043 203.105,278.71594 338.30076,147.01037 351.60907,134.83432 483.48112,2.0267179 Z M 82.327325,294.20189 V 79.4815 H 297.31915 Z"
       id="path61"
       inkscape:connector-curvature="0"
       style="stroke-width:1.34478354;fill:#ff0000" />
    <path
       d="m 692.92184,81.708395 c 0,36.522765 -21.05647,67.511195 -52.08543,83.009455 v 261.19364 c -19.94766,-37.63015 -47.64886,-71.94214 -80.89543,-99.60837 v -162.6967 c -31.02895,-14.38951 -52.08541,-46.48669 -52.08541,-83.009461 0,-33.204585 17.73005,-61.97822 44.32649,-78.5784985 V 80.596959 L 599.83093,104.94503 648.594,81.709736 V 3.1258629 C 675.19177,18.62277 692.92049,48.505151 692.92049,81.709736 Z"
       id="path63"
       inkscape:connector-curvature="0"
       style="stroke-width:1.34478354;fill:#000080" />
    <path
       d="m 698.46585,600.78828 v 66.40379 c 0,15.49692 -12.18956,27.67162 -27.70659,27.67162 H 28.031026 c -15.516492,0 -27.70658464,-12.17416 -27.70658464,-27.67162 v -66.40379 c 0,-15.49691 12.18955064,-27.67162 27.70658464,-27.67162 H 670.77271 c 15.51112,0 27.70121,12.17417 27.70121,27.67162 z"
       id="path65"
       inkscape:connector-curvature="0"
       style="stroke-width:1.34478354" />
    <path
       d="M 667.43554,562.04265 H 31.35474 c 6.649313,-133.92038 96.41192,-249.0176 224.96297,-287.76324 l 22.16122,160.47921 c 3.3221,17.70769 19.94766,30.98979 37.67773,30.98979 h 66.49313 c 17.73005,0 34.35535,-13.28183 37.67772,-32.09719 l 21.05647,-158.27516 c 129.65446,37.63554 219.40549,152.73815 226.06637,286.66121 z"
       id="path67"
       inkscape:connector-curvature="0"
       style="stroke-width:1.34478354" />
    <path
       d="M 433.61833,257.68183 410.34828,431.4391 c -3.3221,13.28183 -14.40768,22.13325 -26.59777,22.13325 l -67.60191,0.005 c -13.29863,0 -24.37886,-8.85625 -26.5978,-22.13325 L 266.28078,256.57162 c -3.3221,-16.6003 9.97139,-33.2046 27.70658,-33.2046 h 114.14198 c 8.86746,0 16.62127,3.3179 21.05646,9.95882 4.43118,7.74858 6.64407,15.49691 4.43118,24.34806 z"
       id="path69"
       inkscape:connector-curvature="0"
       style="stroke-width:1.34478354" />
  </g>
</svg>
