<?xml version="1.0" encoding="UTF-8" standalone="no"?>
<svg
   xmlns:dc="http://purl.org/dc/elements/1.1/"
   xmlns:cc="http://creativecommons.org/ns#"
   xmlns:rdf="http://www.w3.org/1999/02/22-rdf-syntax-ns#"
   xmlns:svg="http://www.w3.org/2000/svg"
   xmlns="http://www.w3.org/2000/svg"
   xmlns:sodipodi="http://sodipodi.sourceforge.net/DTD/sodipodi-0.dtd"
   xmlns:inkscape="http://www.inkscape.org/namespaces/inkscape"
   width="700pt"
   height="700pt"
   version="1.1"
   viewBox="0 0 700 700"
   id="svg156"
   sodipodi:docname="noun-check-1763833.svg"
   inkscape:export-filename="C:\Users\asoumare\AppData\Roaming\QGIS\QGIS3\profiles\default\python\plugins\Cap_Comac\icon2_grand.png"
   inkscape:export-xdpi="7.1999998"
   inkscape:export-ydpi="7.1999998"
   inkscape:version="0.92.4 (5da689c313, 2019-01-14)">
  <metadata
     id="metadata160">
    <rdf:RDF>
      <cc:Work
         rdf:about="">
        <dc:format>image/svg+xml</dc:format>
        <dc:type
           rdf:resource="http://purl.org/dc/dcmitype/StillImage" />
      </cc:Work>
    </rdf:RDF>
  </metadata>
  <sodipodi:namedview
     pagecolor="#ffffff"
     bordercolor="#666666"
     borderopacity="1"
     objecttolerance="10"
     gridtolerance="10"
     guidetolerance="10"
     inkscape:pageopacity="0"
     inkscape:pageshadow="2"
     inkscape:window-width="2400"
     inkscape:window-height="1271"
     id="namedview158"
     showgrid="false"
     inkscape:zoom="0.50571429"
     inkscape:cx="673.87238"
     inkscape:cy="268.95179"
     inkscape:window-x="-9"
     inkscape:window-y="-9"
     inkscape:window-maximized="1"
     inkscape:current-layer="g154" />
  <defs
     id="defs68">
    <symbol
       id="v"
       overflow="visible">
      <path
         d="m5.8594-0.34375c-0.30469 0.15625-0.62109 0.27344-0.95312 0.34375-0.32422 0.082031-0.66406 0.125-1.0156 0.125-1.0625 0-1.9062-0.29688-2.5312-0.89062-0.61719-0.59375-0.92188-1.3984-0.92188-2.4219 0-1.0195 0.30469-1.8281 0.92188-2.4219 0.625-0.59375 1.4688-0.89062 2.5312-0.89062 0.35156 0 0.69141 0.042969 1.0156 0.125 0.33203 0.085938 0.64844 0.20312 0.95312 0.35938v1.3125c-0.30469-0.20703-0.60547-0.35938-0.90625-0.45312-0.29297-0.09375-0.60156-0.14062-0.92188-0.14062-0.59375 0-1.0586 0.1875-1.3906 0.5625-0.33594 0.375-0.5 0.89062-0.5 1.5469s0.16406 1.1797 0.5 1.5625c0.33203 0.375 0.79688 0.5625 1.3906 0.5625 0.32031 0 0.62891-0.046875 0.92188-0.14062 0.30078-0.10156 0.60156-0.25781 0.90625-0.46875z"
         id="path2" />
    </symbol>
    <symbol
       id="c"
       overflow="visible">
      <path
         d="m4.2969-3.4844c-0.13672-0.0625-0.27344-0.10938-0.40625-0.14062-0.13672-0.03125-0.27344-0.046875-0.40625-0.046875-0.38672 0-0.6875 0.13281-0.90625 0.39062-0.21094 0.25-0.3125 0.60938-0.3125 1.0781v2.2031h-1.5312v-4.7812h1.5312v0.78125c0.19531-0.3125 0.42188-0.53906 0.67188-0.6875 0.25781-0.14453 0.56641-0.21875 0.92188-0.21875 0.050781 0 0.10156 0.007812 0.15625 0.015625 0.0625 0 0.14844 0.011719 0.26562 0.03125z"
         id="path5" />
    </symbol>
    <symbol
       id="a"
       overflow="visible">
      <path
         d="m5.5156-2.4062v0.4375h-3.5781c0.03125 0.35547 0.15625 0.625 0.375 0.8125 0.22656 0.17969 0.53906 0.26562 0.9375 0.26562 0.32031 0 0.64844-0.046875 0.98438-0.14062 0.34375-0.09375 0.69141-0.23828 1.0469-0.4375v1.1719c-0.35547 0.14844-0.71484 0.25-1.0781 0.3125-0.36719 0.070312-0.73047 0.10938-1.0938 0.10938-0.86719 0-1.5391-0.21875-2.0156-0.65625-0.48047-0.44531-0.71875-1.0664-0.71875-1.8594 0-0.78125 0.23438-1.3945 0.70312-1.8438 0.47656-0.44531 1.1289-0.67188 1.9531-0.67188 0.75 0 1.3477 0.23047 1.7969 0.6875 0.45703 0.44922 0.6875 1.0547 0.6875 1.8125zm-1.5781-0.5c0-0.28906-0.085938-0.52344-0.25-0.70312-0.16797-0.1875-0.39062-0.28125-0.67188-0.28125-0.29297 0-0.53125 0.085937-0.71875 0.25-0.1875 0.16797-0.30469 0.41406-0.34375 0.73438z"
         id="path8" />
    </symbol>
    <symbol
       id="f"
       overflow="visible">
      <path
         d="m2.875-2.1562c-0.3125 0-0.55469 0.058594-0.71875 0.17188-0.15625 0.10547-0.23438 0.26172-0.23438 0.46875 0 0.19922 0.0625 0.35547 0.1875 0.46875 0.13281 0.10547 0.31641 0.15625 0.54688 0.15625 0.28125 0 0.51953-0.10156 0.71875-0.3125 0.19531-0.20703 0.29688-0.46875 0.29688-0.78125v-0.17188zm2.3438-0.57812v2.7344h-1.5469v-0.70312c-0.21094 0.28125-0.44531 0.49219-0.70312 0.625-0.25 0.13281-0.55859 0.20312-0.92188 0.20312-0.5 0-0.90625-0.14453-1.2188-0.4375-0.30469-0.28906-0.45312-0.66406-0.45312-1.125 0-0.5625 0.19141-0.97266 0.57812-1.2344 0.38281-0.25781 0.98828-0.39062 1.8125-0.39062h0.90625v-0.125c0-0.23828-0.09375-0.41406-0.28125-0.53125-0.1875-0.11328-0.48438-0.17188-0.89062-0.17188-0.33594 0-0.64062 0.039063-0.92188 0.10938-0.28125 0.0625-0.54297 0.16406-0.78125 0.29688v-1.1719c0.32031-0.082031 0.64844-0.14453 0.98438-0.1875 0.33203-0.039062 0.66016-0.0625 0.98438-0.0625 0.86328 0 1.4883 0.17188 1.875 0.51562 0.38281 0.34375 0.57812 0.89844 0.57812 1.6562z"
         id="path11" />
    </symbol>
    <symbol
       id="b"
       overflow="visible">
      <path
         d="m2.4062-6.1406v1.3594h1.5781v1.0938h-1.5781v2.0312c0 0.21875 0.039062 0.37109 0.125 0.45312 0.09375 0.074219 0.26953 0.10938 0.53125 0.10938h0.78125v1.0938h-1.3125c-0.60547 0-1.0312-0.125-1.2812-0.375s-0.375-0.67578-0.375-1.2812v-2.0312h-0.76562v-1.0938h0.76562v-1.3594z"
         id="path14" />
    </symbol>
    <symbol
       id="m"
       overflow="visible">
      <path
         d="m3.9844-4.0781v-2.5625h1.5469v6.6406h-1.5469v-0.6875c-0.21094 0.28125-0.44531 0.49219-0.70312 0.625-0.25 0.125-0.54297 0.1875-0.875 0.1875-0.58594 0-1.0703-0.23438-1.4531-0.70312-0.375-0.46875-0.5625-1.0703-0.5625-1.8125 0-0.73828 0.1875-1.3438 0.5625-1.8125 0.38281-0.46875 0.86719-0.70312 1.4531-0.70312 0.33203 0 0.625 0.070312 0.875 0.20312 0.25781 0.13672 0.49219 0.34375 0.70312 0.625zm-1 3.0938c0.32031 0 0.56641-0.11719 0.73438-0.35938 0.17578-0.23828 0.26562-0.58594 0.26562-1.0469 0-0.45703-0.089844-0.80469-0.26562-1.0469-0.16797-0.23828-0.41406-0.35938-0.73438-0.35938-0.32422 0-0.57422 0.12109-0.75 0.35938-0.16797 0.24219-0.25 0.58984-0.25 1.0469 0 0.46094 0.082031 0.80859 0.25 1.0469 0.17578 0.24219 0.42578 0.35938 0.75 0.35938z"
         id="path17" />
    </symbol>
    <symbol
       id="l"
       overflow="visible">
      <path
         d="m3.2812-0.98438c0.32031 0 0.57031-0.11719 0.75-0.35938 0.17578-0.23828 0.26562-0.58594 0.26562-1.0469 0-0.45703-0.089844-0.80469-0.26562-1.0469-0.17969-0.23828-0.42969-0.35938-0.75-0.35938-0.32422 0-0.57422 0.125-0.75 0.375-0.17969 0.24219-0.26562 0.58594-0.26562 1.0312 0 0.46094 0.085937 0.80859 0.26562 1.0469 0.17578 0.24219 0.42578 0.35938 0.75 0.35938zm-1.0156-3.0938c0.20703-0.28125 0.4375-0.48828 0.6875-0.625 0.25781-0.13281 0.55469-0.20312 0.89062-0.20312 0.59375 0 1.0781 0.23438 1.4531 0.70312 0.38281 0.46875 0.57812 1.0742 0.57812 1.8125 0 0.74219-0.19531 1.3438-0.57812 1.8125-0.375 0.46875-0.85938 0.70312-1.4531 0.70312-0.33594 0-0.63281-0.070312-0.89062-0.20312-0.25-0.13281-0.48047-0.33594-0.6875-0.60938v0.6875h-1.5312v-6.6406h1.5312z"
         id="path20" />
    </symbol>
    <symbol
       id="e"
       overflow="visible">
      <path
         d="m0.10938-4.7812h1.5312l1.2812 3.25 1.0938-3.25h1.5312l-2.0156 5.2344c-0.19922 0.53125-0.43359 0.89844-0.70312 1.1094-0.27344 0.21875-0.625 0.32812-1.0625 0.32812h-0.89062v-1h0.48438c0.25781 0 0.44531-0.042969 0.5625-0.125 0.11328-0.085937 0.20703-0.23438 0.28125-0.45312l0.03125-0.125z"
         id="path23" />
    </symbol>
    <symbol
       id="k"
       overflow="visible">
      <path
         d="m4.6719-1.1562h-2.5625l-0.40625 1.1562h-1.6562l2.3594-6.375h1.9531l2.375 6.375h-1.6562zm-2.1562-1.1875h1.75l-0.875-2.5469z"
         id="path26" />
    </symbol>
    <symbol
       id="j"
       overflow="visible">
      <path
         d="m0.73438-4.7812h1.5312v4.7812h-1.5312zm0-1.8594h1.5312v1.2344h-1.5312z"
         id="path29" />
    </symbol>
    <symbol
       id="i"
       overflow="visible">
      <path
         d="m3.8906-6.6406v1h-0.85938c-0.21094 0-0.35938 0.042969-0.45312 0.125-0.085937 0.074219-0.125 0.20312-0.125 0.39062v0.34375h1.3125v1.0938h-1.3125v3.6875h-1.5312v-3.6875h-0.75v-1.0938h0.75v-0.34375c0-0.51953 0.14453-0.89844 0.4375-1.1406 0.28906-0.25 0.74219-0.375 1.3594-0.375z"
         id="path32" />
    </symbol>
    <symbol
       id="u"
       overflow="visible">
      <path
         d="m5.25-6.1719v1.3438c-0.35547-0.15625-0.69922-0.26953-1.0312-0.34375-0.33594-0.082031-0.65234-0.125-0.95312-0.125-0.38672 0-0.67188 0.054687-0.85938 0.15625-0.1875 0.10547-0.28125 0.27344-0.28125 0.5 0 0.17969 0.0625 0.3125 0.1875 0.40625s0.35156 0.17969 0.6875 0.25l0.70312 0.14062c0.70703 0.13672 1.207 0.35156 1.5 0.64062 0.30078 0.29297 0.45312 0.70312 0.45312 1.2344 0 0.71094-0.21094 1.2344-0.625 1.5781-0.41797 0.34375-1.0547 0.51562-1.9062 0.51562-0.40625 0-0.8125-0.042969-1.2188-0.125-0.40625-0.070312-0.8125-0.17969-1.2188-0.32812v-1.3906c0.40625 0.21875 0.79688 0.38672 1.1719 0.5 0.38281 0.10547 0.75391 0.15625 1.1094 0.15625 0.35156 0 0.625-0.054688 0.8125-0.17188 0.19531-0.125 0.29688-0.30078 0.29688-0.53125 0-0.19531-0.070313-0.34766-0.20312-0.45312-0.125-0.11328-0.38281-0.21094-0.76562-0.29688l-0.64062-0.14062c-0.63672-0.13281-1.1055-0.34766-1.4062-0.64062-0.29297-0.30078-0.4375-0.70703-0.4375-1.2188 0-0.63281 0.20312-1.125 0.60938-1.4688 0.41406-0.34375 1.0078-0.51562 1.7812-0.51562 0.34375 0 0.70312 0.027344 1.0781 0.078125 0.375 0.054687 0.75781 0.13672 1.1562 0.25z"
         id="path35" />
    </symbol>
    <symbol
       id="h"
       overflow="visible">
      <path
         d="m0.6875-1.8594v-2.9219h1.5312v0.46875 0.98438 0.78125c0 0.38672 0.003906 0.66406 0.015625 0.82812 0.019531 0.16797 0.054687 0.29297 0.10938 0.375 0.0625 0.09375 0.14453 0.17188 0.25 0.23438 0.10156 0.054687 0.21875 0.078125 0.34375 0.078125 0.32031 0 0.57031-0.11719 0.75-0.35938 0.1875-0.25 0.28125-0.59375 0.28125-1.0312v-2.3594h1.5312v4.7812h-1.5312v-0.6875c-0.23047 0.27344-0.47656 0.47656-0.73438 0.60938-0.26172 0.13281-0.54688 0.20312-0.85938 0.20312-0.55469 0-0.97656-0.16406-1.2656-0.5-0.28125-0.34375-0.42188-0.83594-0.42188-1.4844z"
         id="path38" />
    </symbol>
    <symbol
       id="t"
       overflow="visible">
      <path
         d="m3.9844-0.8125c-0.21094 0.28125-0.44531 0.49219-0.70312 0.625-0.25 0.125-0.54297 0.1875-0.875 0.1875-0.58594 0-1.0703-0.22656-1.4531-0.6875-0.375-0.45703-0.5625-1.0469-0.5625-1.7656 0-0.70703 0.1875-1.2891 0.5625-1.75 0.38281-0.45703 0.86719-0.6875 1.4531-0.6875 0.33203 0 0.625 0.070313 0.875 0.20312 0.25781 0.125 0.49219 0.32812 0.70312 0.60938v-0.70312h1.5469v4.2969c0 0.76953-0.24609 1.3594-0.73438 1.7656-0.48047 0.40625-1.1836 0.60938-2.1094 0.60938-0.30469 0-0.59375-0.027344-0.875-0.078125-0.27344-0.042969-0.54688-0.10938-0.82812-0.20312v-1.1875c0.25781 0.15625 0.51953 0.26953 0.78125 0.34375 0.25781 0.070313 0.51562 0.10938 0.76562 0.10938 0.50781 0 0.87891-0.10938 1.1094-0.32812 0.22656-0.21875 0.34375-0.5625 0.34375-1.0312zm-1-2.9844c-0.3125 0-0.55859 0.12109-0.73438 0.35938-0.17969 0.23047-0.26562 0.55859-0.26562 0.98438 0 0.4375 0.082031 0.77344 0.25 1 0.16406 0.23047 0.41406 0.34375 0.75 0.34375 0.3125 0 0.55469-0.11328 0.73438-0.34375 0.17578-0.23828 0.26562-0.57031 0.26562-1 0-0.42578-0.089844-0.75391-0.26562-0.98438-0.17969-0.23828-0.42188-0.35938-0.73438-0.35938z"
         id="path41" />
    </symbol>
    <symbol
       id="g"
       overflow="visible">
      <path
         d="m5.5469-2.9062v2.9062h-1.5469v-2.2344c0-0.40625-0.011719-0.6875-0.03125-0.84375-0.011719-0.15625-0.039062-0.27344-0.078125-0.35938-0.0625-0.09375-0.14844-0.16406-0.25-0.21875-0.10547-0.0625-0.21875-0.09375-0.34375-0.09375-0.32422 0-0.57812 0.125-0.76562 0.375-0.17969 0.24219-0.26562 0.57812-0.26562 1.0156v2.3594h-1.5312v-4.7812h1.5312v0.70312c0.22656-0.28125 0.47266-0.48828 0.73438-0.625 0.25781-0.13281 0.54688-0.20312 0.85938-0.20312 0.55078 0 0.96875 0.17188 1.25 0.51562 0.28906 0.33594 0.4375 0.82812 0.4375 1.4844z"
         id="path44" />
    </symbol>
    <symbol
       id="d"
       overflow="visible">
      <path
         d="m3.0156-3.8125c-0.34375 0-0.60547 0.125-0.78125 0.375-0.17969 0.24219-0.26562 0.58984-0.26562 1.0469 0 0.46094 0.085938 0.8125 0.26562 1.0625 0.17578 0.24219 0.4375 0.35938 0.78125 0.35938 0.33203 0 0.58594-0.11719 0.76562-0.35938 0.17578-0.25 0.26562-0.60156 0.26562-1.0625 0-0.45703-0.089844-0.80469-0.26562-1.0469-0.17969-0.25-0.43359-0.375-0.76562-0.375zm0-1.0938c0.82031 0 1.4609 0.22656 1.9219 0.67188 0.46875 0.44922 0.70312 1.0625 0.70312 1.8438 0 0.79297-0.23438 1.4141-0.70312 1.8594-0.46094 0.4375-1.1016 0.65625-1.9219 0.65625-0.83594 0-1.4844-0.21875-1.9531-0.65625-0.46094-0.44531-0.6875-1.0664-0.6875-1.8594 0-0.78125 0.22656-1.3945 0.6875-1.8438 0.46875-0.44531 1.1172-0.67188 1.9531-0.67188z"
         id="path47" />
    </symbol>
    <symbol
       id="s"
       overflow="visible">
      <path
         d="m5.1719-3.9844c0.1875-0.30078 0.41406-0.53125 0.6875-0.6875 0.26953-0.15625 0.5625-0.23438 0.875-0.23438 0.55078 0 0.96875 0.17188 1.25 0.51562 0.28906 0.33594 0.4375 0.82812 0.4375 1.4844v2.9062h-1.5312v-2.5-0.10938-0.17188c0-0.34375-0.054687-0.58594-0.15625-0.73438-0.09375-0.15625-0.25-0.23438-0.46875-0.23438-0.29297 0-0.51562 0.12109-0.67188 0.35938-0.15625 0.24219-0.24219 0.58984-0.25 1.0469v2.3438h-1.5312v-2.5c0-0.53125-0.046875-0.86719-0.14062-1.0156-0.09375-0.15625-0.25781-0.23438-0.48438-0.23438-0.29297 0-0.52344 0.12109-0.6875 0.35938-0.15625 0.24219-0.23438 0.58594-0.23438 1.0312v2.3594h-1.5469v-4.7812h1.5469v0.70312c0.1875-0.26953 0.39844-0.47266 0.64062-0.60938 0.25-0.14453 0.51953-0.21875 0.8125-0.21875 0.33203 0 0.625 0.085938 0.875 0.25 0.25 0.15625 0.44141 0.38281 0.57812 0.67188z"
         id="path50" />
    </symbol>
    <symbol
       id="r"
       overflow="visible">
      <path
         d="m5.5469-2.9062v2.9062h-1.5469v-2.2188c0-0.41406-0.011719-0.70312-0.03125-0.85938-0.011719-0.15625-0.039062-0.27344-0.078125-0.35938-0.0625-0.09375-0.14844-0.16406-0.25-0.21875-0.10547-0.0625-0.21875-0.09375-0.34375-0.09375-0.32422 0-0.57812 0.125-0.76562 0.375-0.17969 0.24219-0.26562 0.57812-0.26562 1.0156v2.3594h-1.5312v-6.6406h1.5312v2.5625c0.22656-0.28125 0.47266-0.48828 0.73438-0.625 0.25781-0.13281 0.54688-0.20312 0.85938-0.20312 0.55078 0 0.96875 0.17188 1.25 0.51562 0.28906 0.33594 0.4375 0.82812 0.4375 1.4844z"
         id="path53" />
    </symbol>
    <symbol
       id="q"
       overflow="visible">
      <path
         d="m0.79688-6.375h1.8438l2.3125 4.375v-4.375h1.5625v6.375h-1.8281l-2.3281-4.375v4.375h-1.5625z"
         id="path56" />
    </symbol>
    <symbol
       id="p"
       overflow="visible">
      <path
         d="m0.79688-6.375h2.7344c0.8125 0 1.4297 0.18359 1.8594 0.54688 0.4375 0.35547 0.65625 0.86719 0.65625 1.5312 0 0.66797-0.21875 1.1836-0.65625 1.5469-0.42969 0.35547-1.0469 0.53125-1.8594 0.53125h-1.0781v2.2188h-1.6562zm1.6562 1.1875v1.7812h0.90625c0.32031 0 0.56641-0.078125 0.73438-0.23438 0.17578-0.15625 0.26562-0.375 0.26562-0.65625s-0.089844-0.5-0.26562-0.65625c-0.16797-0.15625-0.41406-0.23438-0.73438-0.23438z"
         id="path59" />
    </symbol>
    <symbol
       id="o"
       overflow="visible">
      <path
         d="m0.73438-4.7812h1.5312v4.7031c0 0.63281-0.15625 1.1172-0.46875 1.4531-0.30469 0.34375-0.74609 0.51562-1.3281 0.51562h-0.76562v-1h0.26562c0.28906 0 0.48828-0.070313 0.59375-0.20312 0.11328-0.13672 0.17188-0.39062 0.17188-0.76562zm0-1.8594h1.5312v1.2344h-1.5312z"
         id="path62" />
    </symbol>
    <symbol
       id="n"
       overflow="visible">
      <path
         d="m4.5938-4.6406v1.25c-0.19922-0.14453-0.40625-0.25-0.625-0.3125-0.21094-0.070313-0.42188-0.10938-0.64062-0.10938-0.42969 0-0.76172 0.125-1 0.375-0.24219 0.25-0.35938 0.60156-0.35938 1.0469 0 0.44922 0.11719 0.79688 0.35938 1.0469 0.23828 0.25 0.57031 0.375 1 0.375 0.23828 0 0.46094-0.035156 0.67188-0.10938 0.21875-0.070313 0.41406-0.17578 0.59375-0.3125v1.25c-0.23047 0.085938-0.46875 0.14453-0.71875 0.1875-0.25 0.050781-0.5 0.078125-0.75 0.078125-0.85547 0-1.5273-0.21875-2.0156-0.65625-0.49219-0.44531-0.73438-1.0664-0.73438-1.8594 0-0.78906 0.24219-1.4062 0.73438-1.8438 0.48828-0.44531 1.1602-0.67188 2.0156-0.67188 0.25 0 0.49219 0.027344 0.73438 0.078125 0.25 0.042969 0.49219 0.10547 0.73438 0.1875z"
         id="path65" />
    </symbol>
  </defs>
  <g
     id="g154">
    <path
       d="m 403.25931,22.823362 v 48.17604 c 13.13892,4.379639 28.46767,6.56946 41.60659,13.13892 l 26.27783,-43.796401 c 13.13892,-24.08802 102.92155,28.46766 89.78263,52.55568 L 534.64852,136.694 565.306,167.35148 609.1024,141.07364 c 24.08802,-13.13892 76.6437,76.64371 52.55568,89.78263 l -45.98623,28.46766 c 4.37965,13.13892 8.75929,26.27784 10.94911,39.41676 h 52.55568 c 28.46766,0 28.46766,105.11135 0,105.11135 h -52.55568 c -4.37964,13.13892 -6.56946,26.27784 -10.94911,39.41676 l 45.98623,28.46767 C 685.7461,484.87539 633.19042,574.658 609.1024,561.51908 l -45.98623,-26.27784 c -8.75927,8.75928 -17.51855,19.70839 -28.46765,28.46767 l 26.27784,45.98622 c 13.13892,24.08802 -76.64371,76.6437 -89.78263,52.55568 l -26.27783,-43.7964 c -13.13892,4.37964 -28.46767,8.75927 -41.60659,10.94909 v 50.36586 c 0,28.46766 -105.11136,28.46766 -105.11136,0 v -48.17603 c -15.32874,-2.18983 -28.46766,-6.56947 -41.60658,-10.9491 l -24.08801,41.60658 C 217.12461,686.33883 127.342,633.78315 140.48092,609.69513 l 24.08801,-39.41677 -32.84729,-32.84729 -39.41677,24.08801 C 68.21685,574.658 15.661174,484.87539 39.749191,469.54664 L 79.16595,447.64845 C 72.5965,434.50953 70.40667,419.18079 66.02703,403.85204 H 22.230635 c -28.467661,0 -28.467661,-105.11135 0,-105.11135 H 66.02703 C 68.21685,283.41194 72.5965,268.0832 79.16595,254.94428 L 39.749191,230.85627 C 15.661174,217.71735 68.21685,127.93472 92.30487,141.07364 l 39.41677,24.08803 c 8.75928,-13.13893 19.70837,-24.08803 32.84729,-32.84731 L 140.48092,92.897601 c -13.13892,-24.08802 76.64369,-76.6437 89.78261,-52.55568 l 24.08802,41.60658 c 15.32874,-6.56946 28.46766,-8.75928 43.7964,-10.949099 v -48.17604 c 0,-28.467661 105.11136,-28.467661 105.11136,0 z M 350.70363,160.78202 c -105.11135,0 -190.51434,85.40299 -190.51434,190.51435 0,52.55567 21.89821,100.73171 56.93532,133.57902 32.84731,35.03711 81.02334,56.93532 133.57902,56.93532 105.11136,0 190.51435,-85.40299 190.51435,-190.51434 0,-105.11136 -85.40299,-190.51435 -190.51435,-190.51435 z m -94.16226,159.85686 56.93533,56.93533 131.3892,-133.57903 39.41675,41.60659 -170.80595,172.99578 -96.35209,-96.35209 z m 94.16226,-190.51434 c 122.62993,0 221.17183,98.5419 221.17183,221.17183 0,122.62992 -98.5419,221.17181 -221.17183,221.17181 -122.62992,0 -221.17181,-98.54189 -221.17181,-221.17181 0,-122.62993 98.54189,-221.17183 221.17181,-221.17183 z"
       id="path70"
       inkscape:connector-curvature="0"
       style="fill-rule:evenodd;stroke-width:1.25132573" />
  </g>
</svg>
