<?xml version="1.0" encoding="UTF-8"?>
<svg xmlns="http://www.w3.org/2000/svg" viewBox="0 0 64 64" width="64" height="64">
  <!-- Dual Electric Poles - Infrastructure Icon -->
  
  <!-- Left pole -->
  <rect x="14" y="16" width="4" height="44" rx="0.5" fill="#dd6b20"/>
  <rect x="6" y="18" width="20" height="3" rx="0.5" fill="#c05621"/>
  <rect x="9" y="28" width="14" height="2.5" rx="0.5" fill="#c05621"/>
  
  <!-- Left insulators -->
  <circle cx="8" cy="19.5" r="1.8" fill="#3182ce"/>
  <circle cx="16" cy="19.5" r="1.8" fill="#3182ce"/>
  <circle cx="24" cy="19.5" r="1.8" fill="#3182ce"/>
  
  <!-- Right pole -->
  <rect x="46" y="16" width="4" height="44" rx="0.5" fill="#3182ce"/>
  <rect x="38" y="18" width="20" height="3" rx="0.5" fill="#2c5282"/>
  <rect x="41" y="28" width="14" height="2.5" rx="0.5" fill="#2c5282"/>
  
  <!-- Right insulators -->
  <circle cx="40" cy="19.5" r="1.8" fill="#e53e3e"/>
  <circle cx="48" cy="19.5" r="1.8" fill="#e53e3e"/>
  <circle cx="56" cy="19.5" r="1.8" fill="#e53e3e"/>
  
  <!-- Power lines connecting -->
  <path d="M24 19.5 Q32 24 40 19.5" stroke="#4a5568" stroke-width="1.2" fill="none"/>
  <path d="M23 29 Q32 33 41 29" stroke="#4a5568" stroke-width="1.2" fill="none"/>
  
  <!-- Ground line -->
  <line x1="4" y1="60" x2="60" y2="60" stroke="#2d3748" stroke-width="2" stroke-linecap="round"/>
</svg>
